<svg width="14" height="12" viewBox="0 0 14 12" fill="none" xmlns="http://www.w3.org/2000/svg">
<path d="M13.6667 3.76676C13.6076 2.92375 13.2304 2.13468 12.6116 1.55918C11.9928 0.983668 11.1785 0.664685 10.3334 0.666758H3.66672C2.81189 0.665602 1.98929 0.992899 1.36892 1.58101C0.748554 2.16912 0.377836 2.97309 0.333386 3.82676C0.329627 3.88447 0.329627 3.94237 0.333386 4.00009V9.00009C0.331617 9.307 0.390763 9.61122 0.507397 9.89511C0.624032 10.179 0.795837 10.4369 1.01286 10.654C1.22988 10.871 1.48781 11.0428 1.7717 11.1594C2.05559 11.276 2.35981 11.3352 2.66672 11.3334C3.62005 11.3334 4.21339 10.6268 4.79339 9.94009C5.00672 9.69342 5.22672 9.43342 5.46005 9.20676C5.76953 8.97988 6.11729 8.81052 6.48672 8.70676C6.82777 8.66669 7.17234 8.66669 7.51339 8.70676C7.88282 8.81052 8.23058 8.97988 8.54005 9.20676C8.77339 9.43342 8.99339 9.69342 9.20672 9.94009C9.78672 10.6068 10.3801 11.3334 11.3334 11.3334C11.6403 11.3352 11.9445 11.276 12.2284 11.1594C12.5123 11.0428 12.7702 10.871 12.9872 10.654C13.2043 10.4369 13.3761 10.179 13.4927 9.89511C13.6093 9.61122 13.6685 9.307 13.6667 9.00009V4.00009C13.6705 3.94237 13.6705 3.88447 13.6667 3.82676V3.76676ZM12.3334 9.00009C12.3334 9.26531 12.228 9.51966 12.0405 9.7072C11.853 9.89473 11.5986 10.0001 11.3334 10.0001C11.0001 10.0001 10.6667 9.57343 10.2267 9.08009C10.0001 8.82009 9.74672 8.51342 9.46005 8.24009C8.97713 7.85153 8.41862 7.56774 7.82005 7.40676C7.2778 7.30852 6.72231 7.30852 6.18005 7.40676C5.58149 7.56774 5.02298 7.85153 4.54005 8.24009C4.25339 8.51342 4.00005 8.82009 3.77339 9.08009C3.36005 9.57343 3.00005 10.0001 2.66672 10.0001C2.4015 10.0001 2.14715 9.89473 1.95961 9.7072C1.77208 9.51966 1.66672 9.26531 1.66672 9.00009V4.00009C1.66922 3.9668 1.66922 3.93338 1.66672 3.90009C1.6924 3.38718 1.91439 2.9038 2.28672 2.55009C2.65905 2.19638 3.15317 1.99945 3.66672 2.00009H10.3334C10.833 1.99791 11.3154 2.18281 11.6855 2.51841C12.0556 2.854 12.2868 3.31598 12.3334 3.81342V3.89342C12.3305 3.92892 12.3305 3.96459 12.3334 4.00009V9.00009Z" fill="#C8C8C8"/>
</svg>
